<svg viewBox="0 0 72 72" xmlns="http://www.w3.org/2000/svg"><g stroke-linecap="round" stroke-linejoin="round" stroke-miterlimit="10"><path d="m50.46 50.44c-11.2 13.24-28.24 12.54-35.31 6.547l-.4132-1.901c12.72-3.783 15.02-2.284 25.01-11.49 5.776-6.855 10.6-16.93 10.32-24.26 6.04-.1879 0 0 4.682-.1879 3.885 9.759 2.355 22.91-4.282 31.29z" fill="#fcea2b" stroke="#fcea2b" stroke-width=".75"/><path d="m53.21 19.66c4.526-.4236 5.228 22.66-1.408 31.04-11.8 11.01-24.25 12.1-36.84 5.362 25.96 5.489 39.47-15.38 38.25-36.4z" fill="#f1b31c" stroke="#f1b31c" stroke-width=".75"/><g fill="none" stroke="#000" stroke-width="2"><path d="m52.09 15.49-.57-4.29"/><path d="m25.79 56.55c16.7-2.905 24.45-11.14 26.67-27.09"/><path d="m47.54 54.03c-8.106 7.212-23.05 9.45-32.43 2.757l-.4132-1.901c18.42-2.206 32.78-13.96 35.36-35.55 1.105-.0041 4.645-.3957 4.645-.3957 5.599 15.1 1.754 27.15-7.164 35.08z"/></g></g></svg>